# xmcd
#
# Track frame offsets: 
#        150
#        16457
#        26525
#        39947
#        52295
#        71530
#        87402
#        102285
#        115950
#        130737
#        140437
#        152587
#        164722
#        181042
#        194825
#        212977
#        223615
#        233680
#        246717
#        262895
#
# Disc length: 3677 seconds
#
# Revision: 3
# Processed by: cddbd v1.5.2PL0 Copyright (c) Steve Scherf et al.
# Submitted via: ExactAudioCopy v0.99pb4
#
DISCID=290e5b14
DTITLE=Ray Charles - Greatest Country and Western Hits (DCC GZS-1086)
DYEAR=1965
DGENRE=Country
TTITLE0=Your Cheating Heart
TTITLE1=Hey Good Lookin'
TTITLE2=Take These Chains From My Heart
TTITLE3=Move It On Over
TTITLE4=I Can't Stop Loving You
TTITLE5=Just A Little Lovin' (Will Go A Long Way)
TTITLE6=Born To Lose
TTITLE7=You Are My Sunshine
TTITLE8=You Don't Know Me
TTITLE9=Don't Tell Me Your Troubles
TTITLE10=Together Again
TTITLE11=Someday (You'll Want Me To Want You)
TTITLE12=I Love You So Much It Hurts
TTITLE13=Crying TIme
TTITLE14=Careless Love
TTITLE15=I'll Never Stand In Your Way
TTITLE16=Bye Bye Love
TTITLE17=Making Believe
TTITLE18=It Makes No Differnce Now
TTITLE19=Don't Let Her Know
EXTD=1995c 1962-1965
EXTT0=
EXTT1=
EXTT2=
EXTT3=
EXTT4=
EXTT5=
EXTT6=
EXTT7=
EXTT8=
EXTT9=
EXTT10=
EXTT11=
EXTT12=
EXTT13=
EXTT14=
EXTT15=
EXTT16=
EXTT17=
EXTT18=
EXTT19=
PLAYORDER=
